# xmcd
#
# Track frame offsets:
#	150
#	13764
#	27603
#	41223
#
# Disc length: 779 seconds
#
# Revision: 0
# Processed by: cddbd v1.5.2PL0 Copyright (c) Steve Scherf et al.
# Submitted via: audiograbber 1.83.01
#
DISCID=31030904
DTITLE=Sarbel - Yassou Maria
DYEAR=2007
DGENRE=
TTITLE0=Sarbel - Yassou Maria (English ver)
TTITLE1=Sarbel duet Cameron Cartio - Mi chica 
TTITLE2=Sarbel - Yassou Maria (Greenglish ver)
TTITLE3=Sarbel - Ενας απο μας (Any of us-a stupid mistake) (Holiday mix by D Ko
TTITLE3=ntopoulos)
EXTD=
EXTT0=
EXTT1=
EXTT2=
EXTT3=
PLAYORDER=
